<?xml version="1.0" encoding="iso-8859-1"?>
<!-- Generator: Adobe Illustrator 19.0.0, SVG Export Plug-In . SVG Version: 6.00 Build 0)  -->
<svg version="1.1" id="Layer_1" xmlns="http://www.w3.org/2000/svg" xmlns:xlink="http://www.w3.org/1999/xlink" x="0px" y="0px"
	 viewBox="0 0 512 512" style="enable-background:new 0 0 512 512;" xml:space="preserve">
<g>
	<g>
		<g>
			<path d="M247.467,84.122v14.012c0,4.71,3.823,8.533,8.533,8.533s8.533-3.823,8.533-8.533V84.122
				c14.677-3.814,25.6-17.067,25.6-32.922c0-18.825-15.309-34.133-34.133-34.133S221.867,32.375,221.867,51.2
				C221.867,67.055,232.789,80.307,247.467,84.122z M256,34.133c9.404,0,17.067,7.654,17.067,17.067
				c0,9.412-7.663,17.067-17.067,17.067c-9.412,0-17.067-7.654-17.067-17.067C238.933,41.788,246.588,34.133,256,34.133z"/>
			<path d="M89.694,225.545c1.707-4.395-0.469-9.336-4.864-11.042l-16.879-6.562c0.094-1.05,0.316-2.065,0.316-3.14
				c0-18.825-15.317-34.133-34.133-34.133C15.309,170.667,0,185.975,0,204.8s15.309,34.133,34.133,34.133
				c11.674,0,21.99-5.905,28.151-14.882l16.367,6.357c1.015,0.393,2.057,0.58,3.089,0.58
				C85.154,230.989,88.38,228.924,89.694,225.545z M34.133,221.867c-9.412,0-17.067-7.654-17.067-17.067s7.654-17.067,17.067-17.067
				c9.412,0,17.067,7.654,17.067,17.067S43.546,221.867,34.133,221.867z"/>
			<path d="M392.533,426.667c-4.77,0-9.301,0.998-13.423,2.765l-14.191-16.802c-3.038-3.601-8.422-4.07-12.023-1.015
				c-3.61,3.038-4.053,8.422-1.024,12.023l13.798,16.35c-4.489,5.777-7.27,12.945-7.27,20.813c0,18.825,15.309,34.133,34.133,34.133
				c18.825,0,34.133-15.309,34.133-34.133C426.667,441.975,411.358,426.667,392.533,426.667z M392.533,477.867
				c-9.412,0-17.067-7.654-17.067-17.067c0-9.412,7.654-17.067,17.067-17.067c9.404,0,17.067,7.654,17.067,17.067
				C409.6,470.212,401.937,477.867,392.533,477.867z"/>
			<path d="M477.867,170.667c-18.825,0-34.133,15.309-34.133,34.133c0,1.067,0.213,2.082,0.316,3.132l-16.367,6.323
				c-4.403,1.707-6.588,6.647-4.881,11.042c1.306,3.379,4.531,5.461,7.953,5.461c1.024,0,2.065-0.188,3.081-0.58l15.872-6.144
				c6.153,8.986,16.469,14.899,28.16,14.899c18.825,0,34.133-15.309,34.133-34.133S496.691,170.667,477.867,170.667z
				 M477.867,221.867c-9.412,0-17.067-7.654-17.067-17.067s7.654-17.067,17.067-17.067c9.404,0,17.067,7.654,17.067,17.067
				S487.27,221.867,477.867,221.867z"/>
			<path d="M402.543,319.078c0.008-0.026,0.017-0.043,0.026-0.06c4.557-14.515,7.031-29.952,7.031-45.952
				s-2.475-31.437-7.031-45.952c-0.008-0.017-0.017-0.034-0.026-0.06C382.942,164.779,324.668,119.467,256,119.467
				c-68.676,0-126.95,45.312-146.551,107.597l-0.009,0.043c-4.565,14.515-7.04,29.952-7.04,45.96s2.475,31.445,7.04,45.961
				l0.009,0.043c19.601,62.276,77.867,107.588,146.526,107.597h0.008h0.009H256h0.009h0.009
				C324.685,426.658,382.942,381.355,402.543,319.078z M229.513,139.162c-17.058,16.606-39.672,44.348-51.277,82.705h-48.717
				C146.603,179.814,184.004,148.147,229.513,139.162z M119.467,273.067c0-11.802,1.664-23.202,4.489-34.133h50.005
				c-2.099,10.684-3.294,22.059-3.294,34.133c0,12.075,1.195,23.45,3.294,34.133h-50.005
				C121.131,296.269,119.467,284.868,119.467,273.067z M129.519,324.267h48.717c11.605,38.357,34.219,66.099,51.277,82.705
				C184.004,397.986,146.603,366.319,129.519,324.267z M247.467,400.213c-14.857-13.44-38.374-39.245-51.021-75.947h51.021V400.213z
				 M247.467,307.2h-55.885c-2.372-10.65-3.849-21.99-3.849-34.133s1.476-23.484,3.849-34.133h55.885V307.2z M247.467,221.867
				h-51.021c12.646-36.702,36.164-62.507,51.021-75.947V221.867z M392.533,273.067c0,11.802-1.672,23.202-4.497,34.133h-49.997
				c2.091-10.684,3.294-22.059,3.294-34.133c0-12.075-1.203-23.45-3.294-34.133h49.997
				C390.861,249.865,392.533,261.265,392.533,273.067z M382.481,221.867h-48.717c-11.605-38.357-34.227-66.099-51.285-82.705
				C327.996,148.147,365.389,179.814,382.481,221.867z M264.533,145.92c14.857,13.44,38.374,39.245,51.012,75.947h-51.012V145.92z
				 M264.533,238.933h55.885c2.372,10.65,3.849,21.99,3.849,34.133s-1.476,23.484-3.849,34.133h-55.885V238.933z M264.533,400.213
				v-75.947h51.012C302.908,360.969,279.39,386.773,264.533,400.213z M282.479,406.972c17.058-16.606,39.68-44.348,51.285-82.705
				h48.717C365.397,366.319,327.996,397.986,282.479,406.972z"/>
			<path d="M159.454,410.889c-3.558-3.089-8.951-2.714-12.032,0.853l-15.164,17.459c-3.959-1.604-8.26-2.534-12.791-2.534
				c-18.825,0-34.133,15.309-34.133,34.133c0,18.825,15.309,34.133,34.133,34.133c18.816,0,34.133-15.309,34.133-34.133
				c0-8.098-2.953-15.445-7.68-21.299l14.387-16.572C163.396,419.371,163.021,413.978,159.454,410.889z M119.467,477.867
				c-9.412,0-17.067-7.654-17.067-17.067c0-9.412,7.654-17.067,17.067-17.067s17.067,7.654,17.067,17.067
				C136.533,470.212,128.879,477.867,119.467,477.867z"/>
		</g>
	</g>
</g>
<g>
</g>
<g>
</g>
<g>
</g>
<g>
</g>
<g>
</g>
<g>
</g>
<g>
</g>
<g>
</g>
<g>
</g>
<g>
</g>
<g>
</g>
<g>
</g>
<g>
</g>
<g>
</g>
<g>
</g>
</svg>
